<?xml version="1.0" standalone="no"?>
<!DOCTYPE svg PUBLIC "-//W3C//DTD SVG 20010904//EN"
 "http://www.w3.org/TR/2001/REC-SVG-20010904/DTD/svg10.dtd">
<svg version="1.0" xmlns="http://www.w3.org/2000/svg"
 width="1024.000000pt" height="1024.000000pt" viewBox="0 0 1024.000000 1024.000000"
 preserveAspectRatio="xMidYMid meet">
<metadata>
Created by potrace 1.11, written by Peter Selinger 2001-2013
</metadata>
<g transform="translate(0.000000,1024.000000) scale(0.100000,-0.100000)"
fill="#000000" stroke="none">
<path d="M1540 10220 c-357 -61 -635 -184 -893 -397 -78 -65 -91 -77 -177
-169 -216 -233 -391 -582 -436 -870 -3 -21 -11 -59 -17 -84 -8 -32 -12 -1025
-13 -3550 l-2 -3505 24 -140 c51 -298 153 -538 330 -781 228 -311 543 -529
939 -650 44 -13 91 -27 105 -29 14 -3 50 -9 80 -15 30 -5 73 -13 95 -17 22 -4
1604 -8 3515 -9 3523 -2 3518 -2 3700 31 62 11 148 35 251 70 285 97 564 287
762 520 94 112 121 148 183 255 130 222 195 409 233 662 18 118 19 262 19
3568 0 2045 -3 3477 -9 3524 -68 578 -392 1079 -879 1358 -99 56 -188 100
-230 113 -14 4 -29 11 -35 15 -5 4 -44 17 -85 29 -41 13 -86 26 -100 31 -24 8
-55 15 -125 27 -16 3 -64 11 -105 18 -62 12 -681 14 -3550 13 -3291 0 -3481
-1 -3580 -18z"/>
</g>
</svg>
